<?xml version="1.0" encoding="UTF-8" standalone="no"?>
<!-- Created with Inkscape (http://www.inkscape.org/) -->

<svg
   width="44.767151mm"
   height="39.687485mm"
   viewBox="0 0 44.767151 39.687485"
   version="1.1"
   id="svg5"
   inkscape:version="1.2 (dc2aeda, 2022-05-15)"
   sodipodi:docname="dessin.svg"
   xmlns:inkscape="http://www.inkscape.org/namespaces/inkscape"
   xmlns:sodipodi="http://sodipodi.sourceforge.net/DTD/sodipodi-0.dtd"
   xmlns:xlink="http://www.w3.org/1999/xlink"
   xmlns="http://www.w3.org/2000/svg"
   xmlns:svg="http://www.w3.org/2000/svg">
  <sodipodi:namedview
     id="namedview7"
     pagecolor="#ffffff"
     bordercolor="#000000"
     borderopacity="0.25"
     inkscape:showpageshadow="2"
     inkscape:pageopacity="0.0"
     inkscape:pagecheckerboard="0"
     inkscape:deskcolor="#d1d1d1"
     inkscape:document-units="mm"
     showgrid="false"
     inkscape:zoom="2.9574862"
     inkscape:cx="116.315"
     inkscape:cy="166.01937"
     inkscape:window-width="1440"
     inkscape:window-height="766"
     inkscape:window-x="23"
     inkscape:window-y="58"
     inkscape:window-maximized="0"
     inkscape:current-layer="layer2" />
  <defs
     id="defs2">
    <linearGradient
       inkscape:collect="always"
       id="linearGradient15204">
      <stop
         style="stop-color:#1a2b4a;stop-opacity:1;"
         offset="0"
         id="stop15200" />
      <stop
         style="stop-color:#b04a33;stop-opacity:1;"
         offset="1"
         id="stop15202" />
    </linearGradient>
    <linearGradient
       inkscape:collect="always"
       id="linearGradient9198">
      <stop
         style="stop-color:#1a2b4a;stop-opacity:1;"
         offset="0"
         id="stop9194" />
      <stop
         style="stop-color:#b04a32;stop-opacity:1;"
         offset="1"
         id="stop9196" />
    </linearGradient>
    <linearGradient
       inkscape:collect="always"
       id="linearGradient1143">
      <stop
         style="stop-color:#1a2b4a;stop-opacity:1;"
         offset="0"
         id="stop1139" />
      <stop
         style="stop-color:#b04a32;stop-opacity:1;"
         offset="1"
         id="stop1141" />
    </linearGradient>
    <linearGradient
       inkscape:collect="always"
       xlink:href="#linearGradient1143"
       id="linearGradient4389"
       gradientUnits="userSpaceOnUse"
       gradientTransform="translate(-41.399546,-54.878345)"
       x1="19.48255"
       y1="59.40213"
       x2="189.28813"
       y2="59.40213" />
    <linearGradient
       inkscape:collect="always"
       xlink:href="#linearGradient1143"
       id="linearGradient4444"
       gradientUnits="userSpaceOnUse"
       gradientTransform="translate(30.288969,-55.651754)"
       x1="19.48255"
       y1="59.40213"
       x2="189.28813"
       y2="59.40213" />
    <linearGradient
       inkscape:collect="always"
       xlink:href="#linearGradient15204"
       id="linearGradient21311"
       gradientUnits="userSpaceOnUse"
       gradientTransform="matrix(1.7657907,0,0,2.1110573,-57.300504,24.926028)"
       x1="24.398094"
       y1="48.136681"
       x2="99.794098"
       y2="48.136681" />
    <linearGradient
       inkscape:collect="always"
       xlink:href="#linearGradient1143"
       id="linearGradient21313"
       gradientUnits="userSpaceOnUse"
       gradientTransform="matrix(0.66409256,0,0,0.66409256,-27.590477,111.80361)"
       x1="19.48255"
       y1="59.40213"
       x2="189.28813"
       y2="59.40213" />
    <linearGradient
       inkscape:collect="always"
       xlink:href="#linearGradient1143"
       id="linearGradient21315"
       gradientUnits="userSpaceOnUse"
       gradientTransform="matrix(0.66409256,0,0,0.66409256,-27.561833,111.81939)"
       x1="19.48255"
       y1="59.40213"
       x2="189.28813"
       y2="59.40213" />
    <linearGradient
       inkscape:collect="always"
       xlink:href="#linearGradient1143"
       id="linearGradient21317"
       gradientUnits="userSpaceOnUse"
       gradientTransform="matrix(0.66409256,0,0,0.66409256,-27.599086,111.81574)"
       x1="19.48255"
       y1="59.40213"
       x2="189.28813"
       y2="59.40213" />
    <linearGradient
       inkscape:collect="always"
       xlink:href="#linearGradient1143"
       id="linearGradient21319"
       gradientUnits="userSpaceOnUse"
       gradientTransform="matrix(0.66409256,0,0,0.66409256,-27.588051,111.82432)"
       x1="19.48255"
       y1="59.40213"
       x2="189.28813"
       y2="59.40213" />
    <linearGradient
       inkscape:collect="always"
       xlink:href="#linearGradient9198"
       id="linearGradient21321"
       gradientUnits="userSpaceOnUse"
       gradientTransform="matrix(0.24069281,0.00314696,-0.00152565,0.49646681,53.566643,148.84792)"
       x1="-138.6288"
       y1="-108.02721"
       x2="-20.689739"
       y2="-108.02721" />
  </defs>
  <g
     inkscape:groupmode="layer"
     id="layer8-8"
     inkscape:label="definitif vertical"
     style="display:inline"
     transform="matrix(0.39687504,0,0,0.39687504,5.8315407,-26.171756)"
     inkscape:export-filename="Travaux/IArche.svg"
     inkscape:export-xdpi="100"
     inkscape:export-ydpi="100">
    <path
       style="font-variation-settings:'wght' 400;display:inline;fill:url(#linearGradient21311);fill-opacity:1;fill-rule:evenodd;stroke:#000000;stroke-width:0.255412;stroke-linejoin:bevel;stroke-opacity:0"
       d="M 97.260086,141.47082 C 50.001949,91.644351 -14.46912,128.28469 -14.46912,128.28469 l 6.34e-4,3.87579 c 0,0 64.907316,-37.098019 111.689302,10.82338 z"
       id="path13929-32-7-39"
       sodipodi:nodetypes="ccccc"
       inkscape:label="path13929" />
    <path
       style="font-variation-settings:'wght' 400;display:inline;fill:#1a2b4a;fill-opacity:1;fill-rule:evenodd;stroke:#000000;stroke-width:0.0878551;stroke-linejoin:bevel;stroke-opacity:0"
       d="m -14.649715,136.62243 h 2.947204 v 28.66788 l -2.947204,0.0531 z"
       id="path5541-0-2"
       inkscape:label="I" />
    <path
       id="path5545-2-3"
       style="font-variation-settings:'wght' 400;display:inline;fill:#1a2b4a;fill-opacity:1;fill-rule:evenodd;stroke:#000000;stroke-width:0.0878551;stroke-linejoin:bevel;stroke-opacity:0"
       d="M 4.0887063,139.94945 -1.3205498,155.6094 H 9.5150263 Z m -11.8259391,25.34086 9.913315,-28.66788 h 3.8581531 l 9.9132937,28.66788 h -3.161472 l -2.304218,-6.96586 -12.7533438,0.0526 -2.357761,6.96615 z"
       inkscape:label="A" />
    <path
       d="m 42.40404,165.88854 c -2.164067,0 -3.996011,-0.48456 -5.4962,-1.45381 -1.500105,-0.96912 -2.641823,-2.30331 -3.425095,-4.00256 -0.769949,-1.71253 -1.168316,-3.67738 -1.194833,-5.89448 0.02579,-2.25669 0.43806,-4.23488 1.234711,-5.93409 0.796507,-1.71272 1.944856,-3.04021 3.44506,-3.98283 1.500052,-0.95579 3.318841,-1.43394 5.456258,-1.43394 2.177146,0 4.068941,0.53125 5.675359,1.59334 1.619621,1.06218 2.728223,2.51563 3.325552,4.36102 l -2.867599,0.91616 c -0.504377,-1.28785 -1.307603,-2.28353 -2.409527,-2.98721 -1.088609,-0.71684 -2.336514,-1.07534 -3.743686,-1.07534 -1.579898,0 -2.887569,0.3651 -3.922993,1.09535 -1.035554,0.71668 -1.805519,1.71922 -2.310009,3.0068 -0.50452,1.28778 -0.763303,2.76815 -0.776663,4.44074 0.02572,2.57554 0.624009,4.64665 1.792274,6.21305 1.168277,1.55345 2.907405,2.32996 5.217391,2.32996 1.460362,0 2.701641,-0.33206 3.723792,-0.99569 1.035508,-0.67708 1.818859,-1.65945 2.349813,-2.94715 l 2.947207,0.87612 c -0.796517,1.91173 -1.96481,3.37205 -3.504839,4.38091 -1.539888,0.99583 -3.378611,1.49365 -5.515973,1.49365 z"
       style="font-size:59.9723px;line-height:1;font-family:Manrope;-inkscape-font-specification:'Manrope, @wght=400';font-variation-settings:'wght' 400;text-align:center;text-orientation:upright;text-anchor:middle;display:inline;fill:url(#linearGradient21313);fill-rule:evenodd;stroke:#000000;stroke-width:0.0878551;stroke-linejoin:bevel;stroke-opacity:0"
       id="path5556-1-0"
       inkscape:label="C" />
    <path
       d="m 19.552016,165.30693 v -21.50666 h 2.628655 c 3.71e-4,1.0296 3.71e-4,3.36397 3.71e-4,3.36397 0,0 6.47e-4,-3.6e-4 0.41781,-0.61586 0.38499,-0.54439 0.803182,-0.989 1.25455,-1.33422 0.557561,-0.49124 1.208072,-0.86297 1.951479,-1.11523 0.743402,-0.26549 1.493497,-0.41821 2.250249,-0.45786 0.756765,-0.0522 1.446999,0 2.071044,0.15917 v 2.74814 c -0.783306,-0.19909 -1.639529,-0.2458 -2.568888,-0.13969 -0.929213,0.10704 -1.785603,0.47791 -2.568785,1.11519 -0.71691,0.55766 -1.254632,1.22786 -1.613018,2.01134 -0.35843,0.76981 -0.597511,1.5931 -0.716919,2.46928 -0.119387,0.86295 -0.179367,1.71929 -0.179367,2.56888 v 10.73327 z"
       style="font-size:59.9723px;line-height:1;font-family:Manrope;-inkscape-font-specification:'Manrope, @wght=400';font-variation-settings:'wght' 400;text-align:center;text-orientation:upright;text-anchor:middle;display:inline;fill:url(#linearGradient21315);fill-rule:evenodd;stroke:#000000;stroke-width:0.0878551;stroke-linejoin:bevel;stroke-opacity:0"
       id="path5582-1-9"
       inkscape:label="R"
       sodipodi:nodetypes="ccccccccccscccscc" />
    <path
       id="path5634-43-2"
       style="font-size:59.9723px;line-height:1;font-family:Manrope;-inkscape-font-specification:'Manrope, @wght=400';font-variation-settings:'wght' 400;text-align:center;text-orientation:upright;text-anchor:middle;display:inline;fill:url(#linearGradient21317);fill-rule:evenodd;stroke:#000000;stroke-width:0.0878551;stroke-linejoin:bevel;stroke-opacity:0"
       inkscape:label="E"
       d="m 88.156716,143.19939 c -2.07099,0 -3.869689,0.46439 -5.396491,1.39358 -1.51344,0.92932 -2.68831,2.25051 -3.524692,3.96299 -0.83642,1.7127 -1.254679,3.74377 -1.254679,6.09368 0,2.27 0.424902,4.24817 1.274568,5.93405 0.849613,1.68607 2.037925,2.99374 3.564672,3.92298 1.539979,0.92942 3.358542,1.39396 5.456132,1.39396 2.08422,0 3.9495,-0.51103 5.59559,-1.53317 1.65941,-1.0358 2.91403,-2.48937 3.76346,-4.3612 l -2.72778,-1.05533 c -0.66375,1.34085 -1.57324,2.36964 -2.72822,3.08657 -1.14162,0.70352 -2.48242,1.05537 -4.02256,1.05537 -2.25689,0 -4.002486,-0.7435 -5.237143,-2.23034 -1.095674,-1.34587 -1.698225,-3.17906 -1.810922,-5.49706 4.861805,5.6e-4 9.499085,-2.3e-4 13.958055,0 v 5.6e-4 h 2.98698 c 0.0661,-2.52237 -0.28506,-4.69291 -1.05528,-6.51171 -0.76997,-1.81904 -1.90519,-3.21264 -3.40529,-4.18163 -1.50018,-0.98263 -3.31218,-1.47368 -5.4364,-1.47368 z m 0.0797,2.68818 c 2.20379,0 3.87666,0.71027 5.01844,2.13072 0.95322,1.17244 1.53,2.81186 1.73269,4.91607 -4.72469,-0.0331 -9.75388,5.4e-4 -13.82258,0 0.19791,-2.00238 0.782204,-3.60234 1.754603,-4.79662 1.234731,-1.50012 3.007017,-2.25017 5.316847,-2.25017 z"
       sodipodi:nodetypes="scssscsccccscccccscssccccsc" />
    <path
       id="path5609-7-7"
       style="font-size:59.9723px;line-height:1;font-family:Manrope;-inkscape-font-specification:'Manrope, @wght=400';font-variation-settings:'wght' 400;text-align:center;text-orientation:upright;text-anchor:middle;display:inline;fill:url(#linearGradient21319);fill-rule:evenodd;stroke:#000000;stroke-width:0.0878551;stroke-linejoin:bevel;stroke-opacity:0"
       inkscape:label="H"
       d="m 55.478874,136.59729 -0.0575,28.75318 2.054424,-0.0384 h 0.9814 v -0.0192 l 0.03494,-5.8e-4 -0.03494,-3.0309 v -8.41802 l 6.44e-4,-0.33523 c 0,0 -6.44e-4,0.1337 -6.44e-4,0.33523 0,-1.22155 0.139451,-2.31021 0.418274,-3.26612 0.278941,-0.9559 0.683524,-1.76565 1.214605,-2.42939 0.544271,-0.67714 1.20819,-1.19479 1.991444,-1.55316 0.796535,-0.35837 1.712686,-0.53778 2.748278,-0.53778 1.128377,0 2.083912,0.20571 2.8672,0.61747 0.79649,0.41139 1.440577,0.99584 1.931757,1.7525 0.504493,0.74345 0.869807,1.61949 1.095436,2.62829 0.225902,0.99576 0.338184,2.09087 0.338184,3.28554 v 10.97269 h 2.947243 v -11.82879 c 0,-0.96919 -0.09288,-1.93827 -0.278865,-2.90743 -0.185581,-0.98238 -0.484861,-1.90489 -0.89639,-2.76764 -0.411477,-0.8764 -0.955767,-1.65297 -1.632836,-2.32991 -0.663826,-0.67711 -1.480058,-1.21504 -2.449196,-1.61328 -0.955929,-0.39834 -2.077907,-0.59707 -3.365627,-0.59707 -1.752381,0 -3.305528,0.38483 -4.659671,1.15487 -0.969986,0.55137 -1.789007,1.29123 -2.4592,2.21744 l -0.109824,-9.02293 v -0.98086 h -0.003 l -3.06e-4,-0.04 z"
       sodipodi:nodetypes="ccccccccccsccscccsccsccccsscccccc" />
    <path
       id="path5753-4-2"
       style="font-variation-settings:'wght' 400;display:inline;fill:url(#linearGradient21321);fill-opacity:1;fill-rule:evenodd;stroke:#000000;stroke-width:0.0457342;stroke-linejoin:bevel;stroke-opacity:0"
       d="m 34.513151,109.57064 a 14.17793,29.244156 0 0 0 7.100722,-3.82511 14.17793,29.244156 0 0 0 7.166713,-25.233019 L 20.42536,80.14179 a 14.17793,29.244156 0 0 0 7.01094,25.41822 14.17793,29.244156 0 0 0 7.076851,4.01063 z M 46.680189,65.968021 a 14.17793,29.244156 0 0 0 -7.100817,3.825158 14.17793,29.244156 0 0 0 -7.166703,25.233102 l 28.355239,0.37044 A 14.17793,29.244156 0 0 0 53.757004,69.978567 14.17793,29.244156 0 0 0 46.680189,65.968021 Z" />
  </g>
</svg>
