<svg shape-rendering="geometricPrecision"
   width="480"
   height="198"
   viewBox="0 0 480 197.4"
   version="1.1"
   id="svg5"
   xmlns:xlink="http://www.w3.org/1999/xlink"
   xmlns="http://www.w3.org/2000/svg"
   >
  <defs
     id="defs2">
    <linearGradient
       id="linearGradient15204">
      <stop
         style="stop-color:#1a2b4a;stop-opacity:1;"
         offset="0"
         id="stop15200" />
      <stop
         style="stop-color:#b04a33;stop-opacity:1;"
         offset="1"
         id="stop15202" />
    </linearGradient>
    <linearGradient
       id="linearGradient9198">
      <stop
         style="stop-color:#1a2b4a;stop-opacity:1;"
         offset="0"
         id="stop9194" />
      <stop
         style="stop-color:#b04a32;stop-opacity:1;"
         offset="1"
         id="stop9196" />
    </linearGradient>
    <linearGradient
       id="linearGradient6843">
      <stop
         style="stop-color:#1a2b4a;stop-opacity:1;"
         offset="0"
         id="stop6839" />
      <stop
         style="stop-color:#ae4a33;stop-opacity:1;"
         offset="1"
         id="stop6841" />
    </linearGradient>
    <linearGradient
       xlink:href="#linearGradient15204"
       id="linearGradient777"
       gradientUnits="userSpaceOnUse"
       gradientTransform="matrix(2.7824238,0,0,3.3264732,-34.550841,-91.706899)"
       x1="24.398094"
       y1="48.136681"
       x2="99.794098"
       y2="48.136681" />
    <linearGradient
       xlink:href="#linearGradient9198"
       id="linearGradient779"
       gradientUnits="userSpaceOnUse"
       gradientTransform="matrix(1.0464358,0,0,1.0464358,12.26438,45.189346)"
       x1="19.48255"
       y1="59.40213"
       x2="189.28813"
       y2="59.40213" />
    <linearGradient
       xlink:href="#linearGradient9198"
       id="linearGradient781"
       gradientUnits="userSpaceOnUse"
       gradientTransform="matrix(1.0464358,0,0,1.0464358,12.30952,45.21429)"
       x1="19.48255"
       y1="59.40213"
       x2="189.28813"
       y2="59.40213" />
    <linearGradient
       xlink:href="#linearGradient9198"
       id="linearGradient783"
       gradientUnits="userSpaceOnUse"
       gradientTransform="matrix(1.0464358,0,0,1.0464358,12.25081,45.208522)"
       x1="19.48255"
       y1="59.40213"
       x2="189.28813"
       y2="59.40213" />
    <linearGradient
       xlink:href="#linearGradient9198"
       id="linearGradient785"
       gradientUnits="userSpaceOnUse"
       gradientTransform="matrix(1.0464358,0,0,1.0464358,12.26821,45.222063)"
       x1="19.48255"
       y1="59.40213"
       x2="189.28813"
       y2="59.40213" />
    <linearGradient
       xlink:href="#linearGradient6843"
       id="linearGradient789"
       gradientUnits="userSpaceOnUse"
       gradientTransform="translate(0.07891049,0.15425226)"
       x1="47.519756"
       y1="193.49248"
       x2="110.06043"
       y2="193.7247" />
    <linearGradient
       xlink:href="#linearGradient6843"
       id="linearGradient793"
       gradientUnits="userSpaceOnUse"
       gradientTransform="translate(2.6332796,0.34443086)"
       x1="47.519756"
       y1="193.49248"
       x2="110.06043"
       y2="193.7247" />
    <linearGradient
       xlink:href="#linearGradient6843"
       id="linearGradient795"
       gradientUnits="userSpaceOnUse"
       gradientTransform="translate(2.9688402,0.34443086)"
       x1="47.519756"
       y1="193.49248"
       x2="110.06043"
       y2="193.7247" />
    <linearGradient
       xlink:href="#linearGradient6843"
       id="linearGradient797"
       gradientUnits="userSpaceOnUse"
       gradientTransform="translate(0.11657569,0.34443086)"
       x1="47.519756"
       y1="193.49248"
       x2="110.06043"
       y2="193.7247" />
    <linearGradient
       xlink:href="#linearGradient7140"
       id="linearGradient7142"
       x1="64.002388"
       y1="196.7802"
       x2="77.077614"
       y2="196.7802"
       gradientUnits="userSpaceOnUse"
       gradientTransform="matrix(0.19994073,0,0,0.22473147,97.215267,97.763748)" />
    <linearGradient
       id="linearGradient7140">
      <stop
         style="stop-color:#3b3245;stop-opacity:1;"
         offset="0"
         id="stop7138" />
      <stop
         style="stop-color:#693c3e;stop-opacity:1;"
         offset="1"
         id="stop7136" />
    </linearGradient>
    <linearGradient
       xlink:href="#linearGradient9198"
       id="linearGradient18656"
       gradientUnits="userSpaceOnUse"
       gradientTransform="matrix(0.06321147,8.2645e-4,-4.0066665e-4,0.13038359,84.623229,150.02904)"
       x1="-138.6288"
       y1="-108.02721"
       x2="-20.689739"
       y2="-108.02721" />
  </defs>
  <g
     id="layer4"
     transform="scale(11.395259) translate(-75.92602,-126.51188)">
    <g
       id="g7911"
       style="display:inline"
       transform="matrix(0.16666666,0,0,0.16666666,81.976953,105.90331)">
      <g
         id="g1094">
        <g
           id="g7899"
           transform="matrix(2,0,0,2,-124.38189,-122.73271)">
          <path
             style="font-variation-settings:'wght' 400;display:inline;fill:url(#linearGradient777);fill-opacity:1;fill-rule:evenodd"
             d="M 208.99609,91.93723 C 134.52969,13.423632 32.9402,71.159265 32.9402,71.159265 l 0.001,6.107202 c 0,0 102.27689,-58.456735 175.99291,17.054493 z"
             id="path7883"
             transform="matrix(0.50000001,0,0,0.50000001,65.242342,97.941392)" />
          <path
             style="font-variation-settings:'wght' 400;display:inline;fill:#1a2b4a;fill-opacity:1;fill-rule:evenodd"
             d="m 32.65563,84.29719 h 4.64402 v 45.17348 l -4.64402,0.0844 z"
             id="path7885"
             transform="matrix(0.50000001,0,0,0.50000001,65.242342,97.941392)" />
          <path
             id="path7887"
             style="font-variation-settings:'wght' 400;display:inline;fill:#1a2b4a;fill-opacity:1;fill-rule:evenodd"
             d="M 62.18245,89.53974 53.6589,114.21567 H 70.73293 Z M 43.54789,129.47067 59.1687,84.29719 h 6.0794 l 15.617392,45.17893 -4.98,-0.005 -3.629142,-10.97678 -20.0959,0.0843 -3.71522,10.97671 z"
             transform="matrix(0.50000001,0,0,0.50000001,65.242342,97.941392)" />
          <path
             d="m 122.55739,130.41292 c -3.41,0 -6.29667,-0.76355 -8.66059,-2.29067 -2.36377,-1.52704 -4.16282,-3.62935 -5.39705,-6.30704 -1.21323,-2.69843 -1.84095,-5.79445 -1.88271,-9.28804 0.0406,-3.55625 0.69025,-6.67324 1.94556,-9.35072 1.25509,-2.69867 3.06459,-4.79058 5.4285,-6.27576 2.36369,-1.50614 5.22964,-2.25931 8.59764,-2.25931 3.4306,0 6.41159,0.83674 8.94285,2.51037 2.55212,1.67348 4.29898,3.96414 5.24022,6.87193 l -4.51857,1.44329 c -0.79477,-2.02914 -2.06047,-3.59803 -3.7968,-4.7067 -1.71535,-1.12971 -3.68171,-1.69449 -5.89905,-1.69449 -2.48953,0 -4.55006,0.57539 -6.18163,1.72589 -1.63174,1.1296 -2.84501,2.70902 -3.63997,4.7381 -0.79497,2.02914 -1.20276,4.36168 -1.2238,6.9974 0.0405,4.05825 0.98328,7.32171 2.82414,9.79017 1.84091,2.44753 4.58132,3.67135 8.22126,3.67135 2.30114,0 4.25707,-0.52333 5.8677,-1.56896 1.63169,-1.06687 2.86606,-2.61489 3.7027,-4.64407 l 4.64402,1.38063 c -1.25511,3.01245 -3.09601,5.31349 -5.5227,6.90327 -2.42648,1.56913 -5.32379,2.35336 -8.69172,2.35336 z"
             style="font-size:59.9723px;line-height:1;font-family:Manrope;-inkscape-font-specification:'Manrope, @wght=400';font-variation-settings:'wght' 400;text-align:center;text-orientation:upright;text-anchor:middle;display:inline;fill:url(#linearGradient779);fill-rule:evenodd"
             id="path7889"
             transform="matrix(0.50000001,0,0,0.50000001,65.242342,97.941392)" />
          <path
             d="M 86.54859,129.49669 V 95.60775 h 4.14205 c 6.1e-4,1.62248 6.1e-4,5.30058 6.1e-4,5.30058 0,0 0.001,-4.8e-4 0.65834,-0.97048 0.60665,-0.85762 1.26562,-1.55837 1.97687,-2.10226 0.87855,-0.77406 1.9036,-1.35975 3.07501,-1.75728 1.17139,-0.41843 2.35335,-0.65887 3.5458,-0.72162 1.19245,-0.0837 2.28007,0 3.2634,0.251 v 4.33016 c -1.23427,-0.31361 -2.58347,-0.3871 -4.04788,-0.21991 -1.46421,0.1679 -2.81365,0.75308 -4.04774,1.75718 -1.12966,0.87867 -1.97695,1.93506 -2.54167,3.16936 -0.56479,1.21326 -0.94153,2.51022 -1.12967,3.89097 -0.18806,1.35964 -0.28266,2.70888 -0.28266,4.0477 v 16.91306 z"
             style="font-size:59.9723px;line-height:1;font-family:Manrope;-inkscape-font-specification:'Manrope, @wght=400';font-variation-settings:'wght' 400;text-align:center;text-orientation:upright;text-anchor:middle;display:inline;fill:url(#linearGradient781);fill-rule:evenodd"
             id="path7891"
             transform="matrix(0.50000001,0,0,0.50000001,65.242342,97.941392)" />
          <path
             id="path7893"
             style="font-size:59.9723px;line-height:1;font-family:Manrope;-inkscape-font-specification:'Manrope, @wght=400';font-variation-settings:'wght' 400;text-align:center;text-orientation:upright;text-anchor:middle;display:inline;fill:url(#linearGradient783);fill-rule:evenodd"
             d="m 194.65158,94.66086 c -3.2633,0 -6.09759,0.73172 -8.50342,2.19603 -2.38481,1.46432 -4.23607,3.54606 -5.554,6.24464 -1.318,2.69865 -1.97706,5.89919 -1.97706,9.6019 0,3.57703 0.66955,6.69394 2.00839,9.35058 1.33877,2.65681 3.21123,4.71718 5.617,6.18155 2.42657,1.46439 5.29218,2.19658 8.59738,2.19658 3.28429,0 6.22332,-0.80535 8.8172,-2.41613 2.61479,-1.63174 4.59166,-3.92253 5.93027,-6.87199 l -4.29827,-1.66275 c -1.04588,2.11265 -2.4791,3.73389 -4.29905,4.86356 -1.79887,1.10859 -3.91156,1.66284 -6.33844,1.66284 -3.55623,0 -6.30687,-1.17151 -8.25233,-3.51439 -1.7265,-2.12057 -2.67598,-5.00944 -2.85356,-8.66183 7.66094,10e-4 14.96803,-3.6e-4 21.9942,0 v 10e-4 h 4.70679 c 0.10441,-3.97471 -0.44922,-7.39508 -1.66283,-10.26096 -1.21326,-2.86594 -3.00211,-5.0621 -5.3659,-6.5892 -2.3639,-1.54802 -5.21916,-2.32196 -8.56637,-2.32196 z m 0.12578,4.23574 c 3.47262,0 6.10857,1.11927 7.90774,3.35755 1.50207,1.84759 2.41085,4.43109 2.7302,7.74644 -7.44481,-0.0534 -15.3695,10e-4 -21.78072,0 0.31186,-3.15517 1.23256,-5.67612 2.7648,-7.55825 1.9456,-2.36382 4.73828,-3.54574 8.37798,-3.54574 z"
             transform="matrix(0.50000001,0,0,0.50000001,65.242342,97.941392)" />
          <path
             id="path7895"
             style="font-size:59.9723px;line-height:1;font-family:Manrope;-inkscape-font-specification:'Manrope, @wght=400';font-variation-settings:'wght' 400;text-align:center;text-orientation:upright;text-anchor:middle;display:inline;fill:url(#linearGradient785);fill-rule:evenodd"
             d="m 143.15989,84.25773 -0.0905,45.3076 4.8641,-0.005 -0.0804,-4.86567 v -13.26467 l 0.001,-0.52802 c 0,0 -0.001,0.21082 -0.001,0.52802 0,-1.9245 0.21973,-3.64026 0.65908,-5.14636 0.43956,-1.50619 1.07705,-2.78214 1.91389,-3.82805 0.85763,-1.06687 1.9038,-1.8827 3.13801,-2.44753 1.25514,-0.56463 2.69875,-0.84728 4.33054,-0.84728 1.77803,0 3.2837,0.32419 4.51797,0.97277 1.25506,0.64844 2.26999,1.56929 3.04392,2.7617 0.79498,1.1714 1.3706,2.55183 1.72615,4.14165 0.35595,1.56886 0.53288,3.29452 0.53288,5.17714 v 17.28983 h 4.64407 v -18.63894 c 0,-1.52713 -0.14655,-3.05422 -0.43942,-4.58128 -0.29243,-1.54803 -0.764,-3.00161 -1.41247,-4.36126 -0.64838,-1.38071 -1.50604,-2.6044 -2.57291,-3.67116 -1.04604,-1.06688 -2.33219,-1.91459 -3.85931,-2.54215 -1.50628,-0.6276 -3.27422,-0.94099 -5.30335,-0.94099 -2.76129,0 -5.20863,0.60651 -7.34239,1.81972 -1.52847,0.86906 -2.81904,2.0351 -3.87508,3.49433 l -0.17309,-14.21769 v -1.54572 h -0.006 l -4.3e-4,-0.0627 z"
             transform="matrix(0.50000001,0,0,0.50000001,65.242342,97.941392)" />
          <g
             id="g1326"
             transform="matrix(3.0000002,0,0,3.0000002,-185.18711,-347.99913)" />
        </g>
        <g
           aria-label="Labs"
           id="g8002"
           style="font-size:29.6333px;font-family:'PingFang TC';-inkscape-font-specification:'PingFang TC, Normal';text-align:center;text-orientation:upright;text-anchor:middle;display:inline;fill:url(#linearGradient797);fill-rule:evenodd;stroke-width:1.2"
           transform="matrix(0.997508,0,0,1,103.62067,22.511247)">
          <path
             d="m 46.93316,183.31546 -0.03117,21.14257 h 14.638853 v -2.10397 H 49.30229 l 0.124333,-19.0386 z"
             id="path7994"
             style="fill:url(#linearGradient789);stroke:none;stroke-opacity:1" />
          <path
             d="m 83.089248,183.31901 0.0601,21.3292 h 2.222498 v -2.51883 c 1.037165,1.9558 2.726264,2.93369 5.096928,2.93369 2.222497,0 3.970862,-0.82973 5.245094,-2.42993 1.126065,-1.48166 1.718731,-3.37819 1.718731,-5.68959 0,-2.25213 -0.592666,-4.0894 -1.718731,-5.57106 -1.244599,-1.65946 -2.96333,-2.45956 -5.126561,-2.45956 -2.192864,0 -3.881963,1.06679 -5.067295,3.23003 l 0.0062,-8.82395 z m 6.994293,7.54971 c 1.659465,0 2.904063,0.59267 3.763429,1.778 0.770466,1.03717 1.155699,2.45957 1.155699,4.29683 0,1.83727 -0.385233,3.2893 -1.096433,4.3561 -0.829732,1.18533 -2.074331,1.80763 -3.733795,1.80763 -1.540932,0 -2.755897,-0.59267 -3.58563,-1.778 -0.770466,-1.0668 -1.155699,-2.45957 -1.155699,-4.1783 v -0.29633 c 0,-1.778 0.414867,-3.23003 1.303866,-4.32646 0.829732,-1.12607 1.955798,-1.65947 3.348563,-1.65947 z"
             id="path7998"
             style="fill:url(#linearGradient793)" />
          <path
             d="m 106.27287,188.91293 c -1.71873,0 -3.14113,0.38523 -4.20792,1.15569 -1.1557,0.77047 -1.71873,1.778 -1.71873,3.08187 0,1.30386 0.56303,2.28176 1.74836,2.99296 0.7112,0.47413 1.98543,0.91863 3.79306,1.36313 1.65946,0.41487 2.7559,0.74084 3.25966,0.9779 0.94827,0.47413 1.45203,1.12607 1.45203,1.98543 0,1.71873 -1.39276,2.60773 -4.11902,2.60773 -1.30387,0 -2.28177,-0.23706 -2.9337,-0.7112 -0.65193,-0.53339 -1.09643,-1.39276 -1.27423,-2.60773 h -2.311397 c 0.355597,3.52637 2.548467,5.30436 6.578587,5.30436 4.32646,0 6.4897,-1.60019 6.4897,-4.74132 0,-1.3335 -0.6223,-2.37067 -1.83727,-3.14113 -0.8001,-0.50377 -2.10396,-0.9779 -3.94123,-1.4224 -1.54093,-0.41487 -2.60773,-0.74083 -3.17076,-1.00753 -0.889,-0.4445 -1.30386,-1.00754 -1.30386,-1.65947 0,-0.68156 0.32596,-1.21496 0.97789,-1.6002 0.59267,-0.41486 1.4224,-0.59266 2.4892,-0.59266 1.21496,0 2.16323,0.23706 2.81516,0.7112 0.59267,0.41486 0.9779,1.12606 1.18533,2.07433 h 2.3114 c -0.41486,-3.2004 -2.4892,-4.77096 -6.28226,-4.77096 z"
             id="path8000"
             style="fill:url(#linearGradient795)" />
        </g>
      </g>
    </g>
    <path
       id="path7897-4"
       style="font-variation-settings:'wght' 400;display:inline;fill:url(#linearGradient18656);fill-opacity:1;fill-rule:evenodd"
       d="m 82.814697,128.2629 a 3.7234439,7.680187 0 0 0 -1.86483,1.00459 3.7234439,7.680187 0 0 0 -1.362535,2.76572 l 3.778925,0.0493 a 3.7234439,7.680187 0 0 1 -0.519521,3.86127 l 3.667649,0.0479 a 3.7234439,7.680187 0 0 0 -1.841059,-6.67556 3.7234439,7.680187 0 0 0 -1.858629,-1.05317 z m 0.03204,7.68084 -3.778925,-0.0496 a 3.7234439,7.680187 0 0 1 0.51952,-3.86092 l -3.667649,-0.0479 a 3.7234439,7.680187 0 0 0 1.841059,6.67522 3.7234439,7.680187 0 0 0 1.858629,1.05351 3.7234439,7.680187 0 0 0 1.864831,-1.00459 3.7234439,7.680187 0 0 0 1.362535,-2.76572 z" />
    <path
       id="path5082"
       style="font-size:29.6333px;font-family:'PingFang TC';-inkscape-font-specification:'PingFang TC, Normal';text-align:center;text-orientation:upright;text-anchor:middle;display:inline;fill:url(#linearGradient7142);fill-opacity:1;fill-rule:evenodd"
       d="m 111.17784,140.17268 c -0.11066,0 -0.12737,0.0713 -0.12827,0.0957 -8.4e-4,0.0319 4.3e-4,0.0625 0,0.0957 -8.4e-4,0.0758 0.0498,0.11968 0.0498,0.11968 v 0.76232 l -1.04718,2.3552 c -0.0171,0.12143 0.079,0.14277 0.079,0.14277 l 0.9791,0.004 v 0.001 l 0.20862,-1.7e-4 0.20861,1.7e-4 v -0.001 l 0.97941,-0.004 c 0,0 0.0954,-0.0213 0.0787,-0.14277 l -1.0844,-2.35503 3e-5,-0.76249 c 0,0 0.0505,-0.0591 0.0518,-0.11968 5.3e-4,-0.0318 5.3e-4,-0.0637 0,-0.0957 -4e-4,-0.0174 -0.0103,-0.0942 -0.11529,-0.0957 -0.10449,-9.9e-4 -0.13195,0 -0.13195,0 z m 0.84,3.22084 c -0.14818,0.0369 -1.27209,0.0421 -1.40711,-0.0158 -0.0705,-0.0575 0.4717,-1.65646 0.69234,-1.70772 0.22997,0.0721 0.74753,1.58601 0.71477,1.72348 z" />
    <ellipse
       style="fill:#583841;fill-opacity:1;fill-rule:evenodd;stroke:none;stroke-width:0.0591998;stroke-linejoin:miter;stroke-dasharray:none;stroke-opacity:1"
       id="circle8260-6-2"
       cx="111.13336"
       cy="142.84712"
       rx="0.1801329"
       ry="0.16854495" />
    <ellipse
       style="fill:#583841;fill-opacity:1;fill-rule:evenodd;stroke:none;stroke-width:0.0444;stroke-linejoin:miter;stroke-dasharray:none;stroke-opacity:1"
       id="circle8262-1-4"
       cx="111.50024"
       cy="142.96336"
       rx="0.13509965"
       ry="0.1264087" />
    <ellipse
       style="fill:#583841;fill-opacity:1;fill-rule:evenodd;stroke:none;stroke-width:0.0296;stroke-linejoin:miter;stroke-dasharray:none;stroke-opacity:1"
       id="circle8316-6-3"
       cx="111.43725"
       cy="142.68353"
       rx="0.090066448"
       ry="0.084272474" />
    <ellipse
       style="fill:#583841;fill-opacity:1;fill-rule:evenodd;stroke:none;stroke-width:0.0154439;stroke-linejoin:miter;stroke-dasharray:none;stroke-opacity:1"
       id="circle8316-6-8-3"
       cx="111.3083"
       cy="142.49165"
       rx="0.046992581"
       ry="0.043969542" />
  </g>
</svg>