<?xml version="1.0" encoding="UTF-8" standalone="no"?>
<!-- Created with Inkscape (http://www.inkscape.org/) -->

<svg
   width="64.459259mm"
   height="19.999985mm"
   viewBox="0 0 64.459259 19.999985"
   version="1.1"
   id="svg5"
   inkscape:version="1.2 (dc2aeda, 2022-05-15)"
   sodipodi:docname="dessin.svg"
   xmlns:inkscape="http://www.inkscape.org/namespaces/inkscape"
   xmlns:sodipodi="http://sodipodi.sourceforge.net/DTD/sodipodi-0.dtd"
   xmlns="http://www.w3.org/2000/svg"
   xmlns:svg="http://www.w3.org/2000/svg">
  <sodipodi:namedview
     id="namedview7"
     pagecolor="#ffffff"
     bordercolor="#000000"
     borderopacity="0.25"
     inkscape:showpageshadow="2"
     inkscape:pageopacity="0.0"
     inkscape:pagecheckerboard="0"
     inkscape:deskcolor="#d1d1d1"
     inkscape:document-units="mm"
     showgrid="false"
     inkscape:zoom="2.9574862"
     inkscape:cx="116.315"
     inkscape:cy="166.01937"
     inkscape:window-width="1440"
     inkscape:window-height="766"
     inkscape:window-x="23"
     inkscape:window-y="58"
     inkscape:window-maximized="0"
     inkscape:current-layer="layer2" />
  <defs
     id="defs2" />
  <g
     inkscape:groupmode="layer"
     id="layer8-7"
     inkscape:label="definitif Noir"
     style="display:inline"
     transform="matrix(0.49999998,0,0,0.49999998,-20.743984,-61.596029)"
     sodipodi:insensitive="true">
    <path
       style="font-variation-settings:'wght' 400;display:inline;fill:#000000;fill-opacity:1;fill-rule:evenodd;stroke:#000000;stroke-width:0.402466;stroke-linejoin:bevel;stroke-opacity:0"
       d="M 208.99609,91.93723 C 134.52969,13.423632 32.9402,71.159265 32.9402,71.159265 l 0.001,6.107202 c 0,0 102.27689,-58.456735 175.99291,17.054493 z"
       id="path13929-32-7-3"
       sodipodi:nodetypes="ccccc"
       inkscape:label="path13929"
       transform="matrix(0.50000001,0,0,0.50000001,65.242342,97.941392)" />
    <path
       style="font-variation-settings:'wght' 400;display:inline;fill:#000000;fill-opacity:1;fill-rule:evenodd;stroke:#000000;stroke-width:0.138436;stroke-linejoin:bevel;stroke-opacity:0"
       d="m 32.65563,84.29719 h 4.64402 v 45.17348 l -4.64402,0.0844 z"
       id="path5541-0-7"
       inkscape:label="I"
       transform="matrix(0.50000001,0,0,0.50000001,65.242342,97.941392)" />
    <path
       id="path5545-2-6"
       style="font-variation-settings:'wght' 400;display:inline;fill:#000000;fill-opacity:1;fill-rule:evenodd;stroke:#000000;stroke-width:0.138436;stroke-linejoin:bevel;stroke-opacity:0"
       d="M 62.18245,89.53974 53.6589,114.21567 H 70.73293 Z M 43.54789,129.47067 59.1687,84.29719 h 6.0794 l 15.62077,45.17348 H 75.8872 l -3.63085,-10.97678 -20.0959,0.0843 -3.71522,10.97671 z"
       inkscape:label="A"
       transform="matrix(0.50000001,0,0,0.50000001,65.242342,97.941392)" />
    <path
       d="m 122.55739,130.41292 c -3.41,0 -6.29667,-0.76355 -8.66059,-2.29067 -2.36377,-1.52704 -4.16282,-3.62935 -5.39705,-6.30704 -1.21323,-2.69843 -1.84095,-5.79445 -1.88271,-9.28804 0.0406,-3.55625 0.69025,-6.67324 1.94556,-9.35072 1.25509,-2.69867 3.06459,-4.79058 5.4285,-6.27576 2.36369,-1.50614 5.22964,-2.25931 8.59764,-2.25931 3.4306,0 6.41159,0.83674 8.94285,2.51037 2.55212,1.67348 4.29898,3.96414 5.24022,6.87193 l -4.51857,1.44329 c -0.79477,-2.02914 -2.06047,-3.59803 -3.7968,-4.7067 -1.71535,-1.12971 -3.68171,-1.69449 -5.89905,-1.69449 -2.48953,0 -4.55006,0.57539 -6.18163,1.72589 -1.63174,1.1296 -2.84501,2.70902 -3.63997,4.7381 -0.79497,2.02914 -1.20276,4.36168 -1.2238,6.9974 0.0405,4.05825 0.98328,7.32171 2.82414,9.79017 1.84091,2.44753 4.58132,3.67135 8.22126,3.67135 2.30114,0 4.25707,-0.52333 5.8677,-1.56896 1.63169,-1.06687 2.86606,-2.61489 3.7027,-4.64407 l 4.64402,1.38063 c -1.25511,3.01245 -3.09601,5.31349 -5.5227,6.90327 -2.42648,1.56913 -5.32379,2.35336 -8.69172,2.35336 z"
       style="font-size:59.9723px;line-height:1;font-family:Manrope;-inkscape-font-specification:'Manrope, @wght=400';font-variation-settings:'wght' 400;text-align:center;text-orientation:upright;text-anchor:middle;display:inline;fill:#000000;fill-rule:evenodd;stroke:#000000;stroke-width:0.138436;stroke-linejoin:bevel;stroke-opacity:0"
       id="path5556-1-4"
       inkscape:label="C"
       transform="matrix(0.50000001,0,0,0.50000001,65.242342,97.941392)" />
    <path
       d="M 86.54859,129.49669 V 95.60775 h 4.14205 c 6.1e-4,1.62248 6.1e-4,5.30058 6.1e-4,5.30058 0,0 0.001,-4.8e-4 0.65834,-0.97048 0.60665,-0.85762 1.26562,-1.55837 1.97687,-2.10226 0.87855,-0.77406 1.9036,-1.35975 3.07501,-1.75728 1.17139,-0.41843 2.35335,-0.65887 3.5458,-0.72162 1.19245,-0.0837 2.28007,0 3.2634,0.251 v 4.33016 c -1.23427,-0.31361 -2.58347,-0.3871 -4.04788,-0.21991 -1.46421,0.1679 -2.81365,0.75308 -4.04774,1.75718 -1.12966,0.87867 -1.97695,1.93506 -2.54167,3.16936 -0.56479,1.21326 -0.94153,2.51022 -1.12967,3.89097 -0.18806,1.35964 -0.28266,2.70888 -0.28266,4.0477 v 16.91306 z"
       style="font-size:59.9723px;line-height:1;font-family:Manrope;-inkscape-font-specification:'Manrope, @wght=400';font-variation-settings:'wght' 400;text-align:center;text-orientation:upright;text-anchor:middle;display:inline;fill:#000000;fill-rule:evenodd;stroke:#000000;stroke-width:0.138436;stroke-linejoin:bevel;stroke-opacity:0"
       id="path5582-1-3"
       inkscape:label="R"
       sodipodi:nodetypes="ccccccccccscccscc"
       transform="matrix(0.50000001,0,0,0.50000001,65.242342,97.941392)" />
    <path
       id="path5634-43-5"
       style="font-size:59.9723px;line-height:1;font-family:Manrope;-inkscape-font-specification:'Manrope, @wght=400';font-variation-settings:'wght' 400;text-align:center;text-orientation:upright;text-anchor:middle;display:inline;fill:#000000;fill-rule:evenodd;stroke:#000000;stroke-width:0.138436;stroke-linejoin:bevel;stroke-opacity:0"
       inkscape:label="E"
       d="m 194.65158,94.66086 c -3.2633,0 -6.09759,0.73172 -8.50342,2.19603 -2.38481,1.46432 -4.23607,3.54606 -5.554,6.24464 -1.318,2.69865 -1.97706,5.89919 -1.97706,9.6019 0,3.57703 0.66955,6.69394 2.00839,9.35058 1.33877,2.65681 3.21123,4.71718 5.617,6.18155 2.42657,1.46439 5.29218,2.19658 8.59738,2.19658 3.28429,0 6.22332,-0.80535 8.8172,-2.41613 2.61479,-1.63174 4.59166,-3.92253 5.93027,-6.87199 l -4.29827,-1.66275 c -1.04588,2.11265 -2.4791,3.73389 -4.29905,4.86356 -1.79887,1.10859 -3.91156,1.66284 -6.33844,1.66284 -3.55623,0 -6.30687,-1.17151 -8.25233,-3.51439 -1.7265,-2.12057 -2.67598,-5.00944 -2.85356,-8.66183 7.66094,10e-4 14.96803,-3.6e-4 21.9942,0 v 10e-4 h 4.70679 c 0.10441,-3.97471 -0.44922,-7.39508 -1.66283,-10.26096 -1.21326,-2.86594 -3.00211,-5.0621 -5.3659,-6.5892 -2.3639,-1.54802 -5.21916,-2.32196 -8.56637,-2.32196 z m 0.12578,4.23574 c 3.47262,0 6.10857,1.11927 7.90774,3.35755 1.50207,1.84759 2.41085,4.43109 2.7302,7.74644 -7.44481,-0.0534 -15.3695,10e-4 -21.78072,0 0.31186,-3.15517 1.23256,-5.67612 2.7648,-7.55825 1.9456,-2.36382 4.73828,-3.54574 8.37798,-3.54574 z"
       sodipodi:nodetypes="scssscsccccscccccscssccccsc"
       transform="matrix(0.50000001,0,0,0.50000001,65.242342,97.941392)" />
    <path
       id="path5609-7-4"
       style="font-size:59.9723px;line-height:1;font-family:Manrope;-inkscape-font-specification:'Manrope, @wght=400';font-variation-settings:'wght' 400;text-align:center;text-orientation:upright;text-anchor:middle;display:inline;fill:#000000;fill-rule:evenodd;stroke:#000000;stroke-width:0.138436;stroke-linejoin:bevel;stroke-opacity:0"
       inkscape:label="H"
       d="m 143.15989,84.25773 -0.0905,45.3076 3.23721,-0.0625 h 1.54646 v -0.0314 l 0.0551,-0.001 -0.0551,-4.77598 v -13.26467 l 0.001,-0.52802 c 0,0 -0.001,0.21082 -0.001,0.52802 0,-1.9245 0.21973,-3.64026 0.65908,-5.14636 0.43956,-1.50619 1.07705,-2.78214 1.91389,-3.82805 0.85763,-1.06687 1.9038,-1.8827 3.13801,-2.44753 1.25514,-0.56463 2.69875,-0.84728 4.33054,-0.84728 1.77803,0 3.2837,0.32419 4.51797,0.97277 1.25506,0.64844 2.26999,1.56929 3.04392,2.7617 0.79498,1.1714 1.3706,2.55183 1.72615,4.14165 0.35595,1.56886 0.53288,3.29452 0.53288,5.17714 v 17.28983 h 4.64407 v -18.63894 c 0,-1.52713 -0.14655,-3.05422 -0.43942,-4.58128 -0.29243,-1.54803 -0.764,-3.00161 -1.41247,-4.36126 -0.64838,-1.38071 -1.50604,-2.6044 -2.57291,-3.67116 -1.04604,-1.06688 -2.33219,-1.91459 -3.85931,-2.54215 -1.50628,-0.6276 -3.27422,-0.94099 -5.30335,-0.94099 -2.76129,0 -5.20863,0.60651 -7.34239,1.81972 -1.52847,0.86906 -2.81904,2.0351 -3.87508,3.49433 l -0.17309,-14.21769 v -1.54572 h -0.006 l -4.3e-4,-0.0627 z"
       sodipodi:nodetypes="ccccccccccsccscccsccsccccsscccccc"
       transform="matrix(0.50000001,0,0,0.50000001,65.242342,97.941392)" />
    <path
       id="path5753-4-5"
       style="font-variation-settings:'wght' 400;display:inline;fill:#000000;fill-opacity:1;fill-rule:evenodd;stroke:#000000;stroke-width:0.0720644;stroke-linejoin:bevel;stroke-opacity:0"
       d="M -25.273609,128.95158 A 22.340664,46.081125 0 0 0 -14.084706,122.92415 22.340664,46.081125 0 0 0 -2.7918406,83.1635 L -47.472257,82.57935 a 22.340664,46.081125 0 0 0 11.047396,40.05267 22.340664,46.081125 0 0 0 11.151252,6.31956 z M -6.1015376,60.245211 A 22.340664,46.081125 0 0 0 -17.290554,66.272677 22.340664,46.081125 0 0 0 -28.58339,106.03334 l 44.68041,0.58404 A 22.340664,46.081125 0 0 0 5.0496704,66.564786 22.340664,46.081125 0 0 0 -6.1015376,60.245208 Z"
       transform="matrix(0.50000001,0,0,0.50000001,65.242342,97.941392)" />
  </g>
</svg>
